
        <svg xmlns="http://www.w3.org/2000/svg" xmlns:xlink="http://www.w3.org/1999/xlink" version="1.1" width="3187.5" 
        height="1125" viewBox="0 0 3187.5 1125">
			
			<g transform="scale(9.375) translate(10, 10)">
				<defs id="SvgjsDefs1934"></defs><g id="SvgjsG1935" featureKey="QMusi1-0" transform="matrix(1.1111111111111112,0,0,1.1111111111111112,-5.555555555555555,-5.555555555555555)" fill="#46cdcf"><path xmlns="http://www.w3.org/2000/svg" fill="#46cdcf" d="M95,52c0-12.871-5.692-24.431-14.682-32.318C72.431,10.692,60.871,5,48,5C24.29,5,5,24.29,5,48  c0,12.868,5.69,24.426,14.677,32.313C27.564,89.306,39.126,95,52,95c0.084,0,0.166-0.006,0.25-0.006S52.416,95,52.5,95  C75.972,95,95,75.972,95,52.5c0-0.084-0.006-0.166-0.006-0.25S95,52.084,95,52z M21.828,73.371  c-4.245-5.978-6.77-13.259-6.822-21.121c0.135-20.511,16.732-37.109,37.244-37.244c7.862,0.052,15.144,2.577,21.121,6.822  C80.224,28.473,84.5,37.758,84.5,48c0,20.126-16.374,36.5-36.5,36.5C37.758,84.5,28.473,80.224,21.828,73.371z M6,48  C6,24.841,24.841,6,48,6c9.858,0,18.926,3.422,26.1,9.13C67.637,11.242,60.076,9,52,9C28.29,9,9,28.29,9,52  c0,8.074,2.241,15.633,6.127,22.095C9.421,66.923,6,57.856,6,48z M52,89c-10.08,0-19.227-4.055-25.905-10.615  C32.269,82.854,39.838,85.5,48,85.5c20.678,0,37.5-16.822,37.5-37.5c0-8.162-2.646-15.731-7.115-21.905  C84.945,32.773,89,41.92,89,52C89,72.402,72.402,89,52,89z"></path></g><g id="SvgjsG1936" featureKey="UyNsn2-0" transform="matrix(2.3922443333584593,0,0,2.3922443333584593,122.00912656626463,18.656103424341385)" fill="#46cdcf"><path d="M0.83008 5.996 l2.7539 0 c0 1.3477 0.23438 2.4935 0.70313 3.4375 c0.50781 1.2239 0.85286 2.1973 1.0352 2.9199 l0 0.019531 l0.029297 0 c0.23438 -0.85938 0.7194 -2.1907 1.4551 -3.9941 c0.1888 -0.85938 0.2832 -1.6536 0.2832 -2.3828 l2.5879 0 c-0.15625 1.4063 -0.35156 2.4414 -0.58594 3.1055 l-1.5527 3.5352 l-0.94727 0 l0 2.4219 l-1.4355 0 l0 0.46875 l1.4355 0 l0 4.4727 l-2.6758 0 c-0.032549 0 -0.048828 -0.016279 -0.048828 -0.048828 l0 -2.1875 l-0.41992 0 l0 -3.877 l0.79102 0 l0 -0.36133 l-0.86914 0 c-0.071611 -0.084639 -0.61197 -1.2988 -1.6211 -3.6426 c-0.42317 -0.9375 -0.63477 -1.5039 -0.63477 -1.6992 l1.1523 0 l0 -0.48828 l-1.25 0 c-0.1237 -1.0352 -0.18555 -1.6016 -0.18555 -1.6992 z M-0.83985 7.695 l1.8555 0 l0.078125 0.48828 l-1.9336 0 l0 -0.48828 z M6.709 12.724599999999999 l0.42969 0 l0 0.097656 l-0.26367 0.33203 l0.26367 0 l0 0.068359 c0 0.032549 -0.016279 0.048828 -0.048828 0.048828 l-0.35156 0 c-0.032549 0 -0.048828 -0.016279 -0.048828 -0.048828 l0 -0.048828 l0.26367 -0.32227 l-0.24414 0 l0 -0.12695 z M6.5918 15.0586 l1.1523 0 l0 0.46875 l-1.1523 0 l0 -0.46875 z M15.537115625 6.025 c2.0052 0 3.3235 0.69988 3.9551 2.0996 c0.35808 0.68359 0.53711 2.002 0.53711 3.9551 l0 0.068359 l-1.0352 0 l0 0.46875 l1.0352 0 l0 5.0488 l-0.68359 0 l0 1.8164 l-1.3574 0 l0 0.51758 l-4.7461 0 l0 -0.51758 l-0.57617 0 l0 -1.8164 l-1.2207 0 l0 -1.4258 l0.72266 0 l0 -0.75195 l-0.72266 0 l0 0.75195 l-1.7285 0 l0 -0.75195 l1.3086 0 c-0.013018 -1.1394 -0.019531 -2.0117 -0.019531 -2.6172 l0 -1.1914 c0 -2.2136 0.37435 -3.6946 1.123 -4.4434 c0.68359 -0.80729 1.8196 -1.2109 3.4082 -1.2109 z M13.828115625 10.8398 l0.029307 -0.0000095367 l-0.029297 0.039063 l0 1.2695 l-1.0449 0 l0 0.46875 l1.0449 0 c-0.013018 2.0117 -0.019531 3.5286 -0.019531 4.5508 l0 0.49805 l2.334 0 l0 -0.77148 l1.0742 0 l0 -0.029297 c0 -0.95052 -0.0065136 -2.2754 -0.019531 -3.9746 c0 -0.071611 0.0065136 -0.25064 0.019531 -0.5371 c0 -1.8359 -0.10742 -2.9655 -0.32227 -3.3887 c-0.22136 -0.40364 -0.62826 -0.60547 -1.2207 -0.60547 l-0.3418 0 c-0.70964 0 -1.1491 0.3125 -1.3184 0.9375 c-0.078125 0.30599 -0.13997 0.82031 -0.18555 1.543 z M20.029315625000002 12.148399999999999 l1.6797 0 l0 0.46875 l-1.6797 0 l0 -0.46875 z M21.07421875 6.016 l2.6953 0 l0 7.3926 l-1.2695 0 l0 0.39063 l1.2695 0 l0 1.3867 c0 1.263 0.22461 1.9987 0.67383 2.207 c0.22786 0.14323 0.51106 0.21484 0.84961 0.21484 l0.83008 0 l0 -2.4512 l0.73242 0 l0 -9.1406 l2.6758 0 l0 8.5938 l-0.9668 0 l0 0.625 l0.9668 0 c-0.013018 0.20183 -0.019531 0.35482 -0.019531 0.45899 l0 2.7441 l-1.4063 0 l0 1.5625 l-6.25 0 l0 -1.9336 l-0.57617 0 l0 -5.7813 l-0.20508 0 l0 -6.2695 z M23.76951875 13.4082 l1.5234 0 l0 0.39063 l-1.5234 0 l0 -0.39063 z M30.478515 6.045 l2.8516 0 c0.039063 0 0.34505 0.74544 0.91797 2.2363 c0.045576 0.058594 0.64453 1.53 1.7969 4.4141 l0.73242 0 l0 -6.6504 l2.4902 0 l0 7.9199 l0.2832 0 l0 3.0859 l-1.0059 0 l0 0.5957 l1.0059 0 l0 1.8359 l-3.7402 0 l0 -2.334 l-0.66406 0 c-0.89844 -2.1875 -1.5039 -3.6979 -1.8164 -4.5313 l0 -2.3535 l-0.35156 0 l0 7.168 l-0.56641 0 l0 2.4707 l-2.334 0 l0 -5.3223 l0.41992 0 l0 -0.029297 c-0.013018 -4.5964 -0.019531 -7.4316 -0.019531 -8.5059 z M34.677725 12.6953 l0 0.51758 l1.5527 0 c-0.1237 -0.34505 -0.20183 -0.51758 -0.23438 -0.51758 l-1.3184 0 z M36.796925 12.6953 l0 0.51758 l-0.54688 0 c0.33203 0.82683 0.5306 1.3672 0.5957 1.6211 l0.019531 0 l0 -0.068359 c-0.045576 -0.84636 -0.068359 -1.364 -0.068359 -1.5527 l1.1328 0 l0 -0.51758 l-1.1328 0 z M35.810525 19.73633 l4.5215 0 l0 0.26367 l-4.5215 0 l0 -0.26367 z M45.722609375 6.035 l0.029315 0.0000095367 c2.0833 0 3.3562 0.68034 3.8184 2.041 c0.21484 0.5013 0.32227 1.2109 0.32227 2.1289 l-2.2656 0.30273 l-0.029297 -0.048828 l0 -0.048828 c0 -1.1003 -0.37109 -1.7546 -1.1133 -1.9629 c-0.22136 -0.065107 -0.49805 -0.10417 -0.83008 -0.11719 c-0.80078 0 -1.3184 0.43294 -1.5527 1.2988 c-0.13672 0.57292 -0.20508 1.25 -0.20508 2.0313 l0 1.0938 c0 1.2695 0.016279 2.2266 0.048828 2.8711 l0.57617 0 l0 1.9434 l2.7734 0 l0 -3.3301 l-1.7578 0 l0 -1.7871 l5.2832 0 l0 0.39063 l-0.69336 0 l0 2.0605 l-1.416 0 l0 0.6543 l0.69336 0 l0 3.9551 l-7.5488 0 l0 -2.1094 l-0.85938 0 l0 -0.18555 l0.37109 0 l0 -0.20508 l0.48828 0 l0 -0.79102 l-1.3184 0 l0 -1.6895 l0.625 0 c-0.013018 -0.49479 -0.019531 -0.778 -0.019531 -0.84961 c0 -2.9558 0.1595 -4.7396 0.47852 -5.3516 c0.097656 -0.39063 0.36784 -0.81706 0.81055 -1.2793 c0.65755 -0.67708 1.7546 -1.0156 3.291 -1.0156 z M43.798809375 19.72657 l2.8711 0 l0 0.27344 l-2.8711 0 l0 -0.27344 z M56.416020625 6.006 l2.8613 0 c0.039063 0 0.34505 0.7487 0.91797 2.2461 c0.05208 0.05208 0.65104 1.5267 1.7969 4.4238 l0.73242 0 l0 -6.6699 l2.5098 0 l0 7.9395 l0.2832 0 l0 3.0957 l-1.0156 0 l0 0.5957 l1.0156 0 l0 1.8457 l-3.7598 0 l0 -2.3438 l-0.66406 0 c-0.89844 -2.194 -1.5039 -3.7077 -1.8164 -4.541 l0 -2.3633 l-0.35156 0 l0 7.1875 l-0.56641 0 l0 2.4805 l-2.3438 0 l0 -5.3418 l0.42969 0 l0 -0.019531 c-0.019531 -4.6094 -0.029297 -7.4544 -0.029297 -8.5352 z M65.351540625 10.3516 l0.26366 0 c0.1237 0 0.18555 0.065107 0.18555 0.19531 c0 0.045576 -0.022783 0.068359 -0.068359 0.068359 c0.045576 0.058594 0.068359 0.13021 0.068359 0.21484 l0 0.048828 l-0.11719 0 c-0.013018 -0.13021 -0.035801 -0.19531 -0.06835 -0.19531 l-0.11719 0 l0 0.19531 l-0.14648 0 l0 -0.52734 z M65.498040625 10.4687 l0 0.12695 l0.11719 0 c0.032549 0 0.048828 -0.016279 0.048828 -0.048828 l0 -0.078125 l-0.16602 0 z M65.351540625 11.0645 l0.40038 0 l0 0.11719 l-0.13672 0 l0 0.40039 l-0.14648 0 l0 -0.40039 l-0.11719 0 c-0.032549 0 -0.048828 -0.016279 -0.048828 -0.048828 l0 -0.019531 c0.0065136 -0.032549 0.022793 -0.048828 0.048838 -0.048828 z M65.302740625 11.7773 l0.097656 0 c0.039063 0 0.078125 0.10091 0.11719 0.30273 l0.048828 0 l0.068359 -0.30273 l0.14648 0 l-0.16602 0.51758 l-0.11719 0 c-0.039063 0 -0.10417 -0.17253 -0.19531 -0.51758 z M65.332040625 12.4805 l0.13671 0.0000095367 c0.0065136 0.058594 0.039063 0.10742 0.097656 0.14648 c0.05208 -0.097656 0.091143 -0.14648 0.11719 -0.14648 l0.097656 0 l0 0.029297 c-0.097656 0.14323 -0.14648 0.22787 -0.14648 0.25392 c0.026045 0.0065136 0.081387 0.084639 0.16603 0.23438 l-0.16602 0 c0 -0.045576 -0.029297 -0.091152 -0.087891 -0.13673 c-0.058594 0.091143 -0.10091 0.13672 -0.12695 0.13672 l-0.11719 0 c0.11067 -0.16276 0.16602 -0.2474 0.16602 -0.25392 c-0.091143 -0.14974 -0.13672 -0.23763 -0.13672 -0.26367 z M60.625040625 12.675799999999999 l0 0.51758 l1.5625 0 c-0.1237 -0.34505 -0.20183 -0.51758 -0.23438 -0.51758 l-1.3281 0 z M62.753940625 12.675799999999999 l0 0.51757 l-0.54688 0 c0.33203 0.83333 0.5306 1.377 0.5957 1.6309 l0.019531 0 l0 -0.068359 c-0.045576 -0.85286 -0.068359 -1.3737 -0.068359 -1.5625 l1.1328 0 l0 -0.51758 l-1.1328 0 z M65.351540625 13.1934 l0.23438 0 c0.16276 0.019531 0.24414 0.097656 0.24414 0.23438 l0 0.019531 c0 0.17578 -0.071611 0.26367 -0.21484 0.26367 l-0.26367 0 l0 -0.51758 z M65.498040625 13.310500000000001 l0 0.30273 c0.1237 0 0.18555 -0.045576 0.18555 -0.13672 l0 -0.029297 c0 -0.078125 -0.022783 -0.1237 -0.068359 -0.13672 l-0.11719 0 z M61.240240625 17.2852 l0.35155 -0.000019073 l0 0.11719 l-0.25391 0 l0 0.087891 l0.20508 0 c0.032549 0.0065136 0.048828 0.022793 0.048828 0.048838 l0 0.029297 c0 0.032549 -0.016279 0.048828 -0.048828 0.048828 l-0.20508 0 l0 0.087891 l0.23438 0 c0.032549 0.0065136 0.048828 0.022793 0.048828 0.048838 l0 0.019531 c0 0.032549 -0.016279 0.048828 -0.048828 0.048828 l-0.33203 0 c-0.032549 0 -0.048828 -0.016279 -0.048828 -0.048828 l0 -0.44922 c0.0065136 -0.026045 0.022793 -0.039063 0.048838 -0.039063 z M58.398440625 17.5391 l0.14648 0 c0.065107 0.19531 0.097656 0.30599 0.097656 0.33203 l0.019531 0 c0.039063 -0.22136 0.078125 -0.33203 0.11719 -0.33203 l0.097656 0 l0 0.029297 c-0.097656 0.33203 -0.1595 0.49805 -0.18555 0.49805 l-0.12695 0 c0 -0.045576 -0.055342 -0.22136 -0.16602 -0.52734 z M61.425740625 17.9883 l0.048818 -0.0000095367 c0.032549 0.0065136 0.048828 0.022793 0.048828 0.048838 l0 0.3125 c0 0.084639 -0.039063 0.14648 -0.11719 0.18555 l-0.068359 0 c-0.11067 0 -0.16602 -0.055342 -0.16602 -0.16602 l0 -0.048828 l0.11719 0 c0 0.065107 0.016279 0.097656 0.048828 0.097656 l0.039063 0 l0 -0.38086 c0.0065136 -0.032549 0.022793 -0.048828 0.048838 -0.048828 z M61.240240625 18.7012 l0.048819 0 c0.032549 0 0.048828 0.061846 0.048828 0.18555 l0.20508 -0.18555 l0.12695 0 l0 0.019531 l-0.19531 0.21484 c0.019531 0 0.091143 0.094404 0.21484 0.2832 l-0.048828 0.029297 l-0.068359 0 c-0.019531 0 -0.084639 -0.071611 -0.19531 -0.21484 c-0.026045 0 -0.048828 0.071611 -0.068359 0.21484 l-0.068359 0 c-0.032549 0 -0.048828 -0.016279 -0.048828 -0.048828 l0 -0.44922 c0.0065136 -0.032549 0.022793 -0.048828 0.048838 -0.048828 z M61.757840625 19.7363 l4.541 0 l0 0.26367 l-4.541 0 l0 -0.26367 z M67.27539 6.016 l7.0215 0 l0 2.3242 l-4.2383 0 l0 3.3203 l3.6523 0 l0.048828 0.029297 l-0.029297 0.048828 c-0.013018 0.46875 -0.019531 0.74219 -0.019531 0.82031 l-0.40039 0 l0 0.019531 c0 0.16927 -0.016279 0.5306 -0.048828 1.084 l0.37109 0 c0 0.26692 -0.022783 0.40039 -0.068359 0.40039 l-2.5684 0 l0 0.47852 l-1.3379 0 l0 0.25391 l0.40039 0 l0 1.2207 l1.3379 0 l0 0.21484 l-1.3379 0 l0 3.3887 l-0.019531 0.16602 l-1.4453 0 l0 0.21484 l-1.2695 0 c-0.032549 0 -0.048828 -0.016279 -0.048828 -0.048828 l0 -0.35156 l0.029297 -0.23438 l0.68359 0 l0 -0.35156 l-0.71289 0 l0 -1.3477 l0.33203 0 l0 -4.9414 l0.56641 0 l0 -0.35156 l-0.89844 0 l0 -6.3574 z M67.04102 15.293 l0.097647 0 c0.032549 0 0.048828 0.016279 0.048828 0.048828 l0 0.32227 c0.0065136 0.097656 0.029297 0.14648 0.068359 0.14648 l0.097656 0 c0.019531 0 0.042314 -0.022783 0.068359 -0.068359 l0 -0.40039 c0.0065136 -0.032549 0.022793 -0.048828 0.048838 -0.048828 l0.087891 0 l0 0.44922 c0 0.13672 -0.094404 0.20508 -0.2832 0.20508 c-0.15625 -0.019531 -0.23438 -0.087891 -0.23438 -0.20508 l0 -0.44922 z M70.1074 15.5273 l0.019531 0 c0.24739 0.11067 0.39063 0.16602 0.42969 0.16602 l0 0.13672 l-0.42969 0.14648 l-0.019531 0 l0 -0.078125 c0 -0.019531 0.094404 -0.065107 0.2832 -0.13672 l0 -0.019531 c-0.032549 0 -0.12695 -0.032549 -0.2832 -0.097656 l0 -0.11719 z M68.7598 16.0156 l0 0.21484 l1.2793 0 l0 -0.21484 l-1.2793 0 z M67.23632 16.1133 l0.01955 0.0000095367 c0.16927 0 0.25391 0.071611 0.25391 0.21484 l-0.15625 0 c0 -0.065107 -0.039063 -0.097656 -0.11719 -0.097656 c-0.026045 0 -0.05209 0.022783 -0.078135 0.068359 c0.23438 0.091143 0.35156 0.15625 0.35156 0.19531 c0 0.013018 0.0097656 0.035801 0.029297 0.06835 c0 0.11719 -0.094404 0.1888 -0.2832 0.21484 c-0.17578 -0.026045 -0.26367 -0.10742 -0.26367 -0.24414 l0.16602 0 c0 0.065107 0.016279 0.097656 0.048828 0.097656 l0.11719 0 c0.032549 0 0.048828 -0.016279 0.048828 -0.048828 l0 -0.048828 c-0.23438 -0.058594 -0.35156 -0.12044 -0.35156 -0.18555 l0 -0.087891 c0.05208 -0.097656 0.12369 -0.14648 0.21483 -0.14648 z M66.9922 16.9336 l0.078145 -0.0000095367 c0.091143 0 0.15299 0.065107 0.18554 0.19531 l0.16602 -0.19531 l0.11719 0 l0 0.048828 c-0.11067 0.14974 -0.16602 0.25391 -0.16602 0.3125 c0.019531 0 0.081377 0.084639 0.18555 0.25391 l0 0.029297 l-0.13672 0 c-0.013018 0 -0.068359 -0.065107 -0.16602 -0.19531 c-0.058594 0.11719 -0.10742 0.18229 -0.14648 0.19531 l-0.13672 0 c0.11067 -0.19531 0.18229 -0.29948 0.21483 -0.3125 c-0.13021 -0.1888 -0.19531 -0.29947 -0.19531 -0.33202 z M74.560543125 6.006 l8.2031 0 l0 2.334 l-2.7148 0 l0 9.6777 l1.2305 0 l0 0.2832 l-1.2305 0 l0 1.0645 l-0.73242 0 l0 0.37109 l0.51758 0 l0 0.26367 l-2.4902 0 c-0.032549 0 -0.048828 -0.016279 -0.048828 -0.048828 l0 -11.611 l-2.7344 0 l0 -2.334 z M79.082003125 18.0176 l0 0.2832 l0.94727 0 l0 -0.2832 l-0.94727 0 z"></path></g>
			</g>
		</svg>
	